<svg id="Layer_1" data-name="Layer 1" xmlns="http://www.w3.org/2000/svg" viewBox="0 0 6044.91 801.64"><defs><style>.cls-1{fill:#0c5ff3;stroke:#0c5ff3;}.cls-2{fill:#1ed1cf;}</style></defs><path d="M1200,114.3V885.6h123.3V114.3Z" transform="translate(-138.89 -100)"/><path d="M1727.2,316c-71.6,0-125.5,35.3-153.1,87.1l-8.8-74.9H1464V885.8h116.7V589.3c0-101.4,47.4-158.7,114.5-158.7,60.6,0,94.7,40.8,94.7,116.8V885.7h117.8V524.2C1907.8,397.5,1842.8,316,1727.2,316Z" transform="translate(-138.89 -100)"/><path d="M2204.1,316c-60.6,0-109,17.6-143.2,51.8s-50.7,74.9-50.7,123.4c0,89.3,54,136.6,174,162,84.8,17.6,109,37.5,109,80.4,0,39.7-29.7,65-83.7,65-58.4,0-93.6-29.8-94.7-81.5H1997c3.3,111.3,79.3,180.7,210.3,180.7,118.9,0,203.7-63.9,203.7-175.2,0-92.6-49.6-141-181.7-167.5C2150,537.5,2128,520.9,2128,481.3c0-38.6,26.4-65,73.8-65,50.7,0,77.1,25.3,78.2,76h116.7c-1.1-52.9-19.8-95.9-56.2-127.8C2305.4,332.5,2260.2,316,2204.1,316Z" transform="translate(-138.89 -100)"/><path d="M2826.5,328.1V633.3c0,95.9-46.3,151-112.3,151-62.8,0-93.6-39.7-93.6-117.9V328.1H2503.9V689.5c0,127.8,60.6,208.3,178.4,208.3,71.6,0,122.2-28.7,150.9-87.1l7.7,74.9h102.4V328.1Z" transform="translate(-138.89 -100)"/><path d="M3362.9,322.6c-88.1,0-143.2,43-164.1,100.3l-9.9-94.8H3086.5V885.7h116.7V595.9c1.1-51.8,16.5-91.5,48.4-117.9,28.6-25.3,66.1-37.5,111.2-37.5V322.6Z" transform="translate(-138.89 -100)"/><path d="M3666.6,316c-81.5,0-147.6,27.5-197.1,82.6-49.6,54-74.9,124.5-74.9,209.4,0,87.1,25.3,157.6,74.9,210.5,50.7,52.9,116.7,79.3,197.1,79.3,128.8,0,215.9-67.2,251.1-182.9H3803.2c-20.9,52.9-65,79.3-133.2,79.3-87,0-148.7-57.3-154.2-146.6h406.4V602.4C3922.1,417.4,3819.7,316,3666.6,316Zm-1.1,102.5c82.6,0,137.7,54,138.8,137.7H3516.9C3524.6,475.8,3581.8,418.5,3665.5,418.5Z" transform="translate(-138.89 -100)"/><path d="M4029.7,114.3V885.6h281.9c120,0,214.8-35.3,286.3-105.8s107.9-164.2,107.9-279.9-36.3-208.3-107.9-278.8c-71.6-71.6-166.3-106.9-286.3-106.9l-281.9.1ZM4311.6,230c168.5,0,267.6,99.2,267.6,270S4479,770,4311.6,770H4153V230Z" transform="translate(-138.89 -100)"/><path d="M4984.7,114.3,4679.6,885.6h135.5l72.7-188.4h324.9l73.8,188.4H5422L5116.9,114.3ZM5064,310.5,5173,586H4928.5l106.8-275.5,14.3-41.9Z" transform="translate(-138.89 -100)"/><path d="M5788.5,100c-115.6,0-211.5,37.5-286.3,113.5C5428.4,288.4,5391,383.2,5391,498.9s37.4,211.6,111.2,287.6c74.9,76,170.7,113.5,286.3,113.5s210.3-37.5,284.1-113.5,111.2-171.9,111.2-287.6-37.4-210.5-111.2-285.4C5998.8,137.5,5904.1,100,5788.5,100ZM5520.9,498.9c0-82.6,24.2-149.9,73.8-202.8,49.6-54,114.5-80.4,193.8-80.4s143.2,26.4,192.7,80.4c49.6,52.9,73.8,120.1,73.8,202.8s-24.2,151-73.8,205-113.4,80.4-192.7,80.4-144.3-26.4-193.8-80.4S5520.9,581.5,5520.9,498.9Z" transform="translate(-138.89 -100)"/><path class="cls-1" d="M828.9,693.3v-.9c0-10.2,0-20.2-.1-30-.1-25.6-.1-50,.3-74.5.1-4.9-.6-8.8-2.4-12.1s-4.8-6-9.2-8.5q-86.25-49-172.3-99l-41.1-23.7h0c-2.5-1.4-4.9-3-7.8-4.9-1.3-.9-2.7-1.8-4.2-2.8l16.5-9.5L824.4,302.7l.8-.4-.8-.4c-7.6-4.4-15-8.7-22.4-13-25.2-14.5-49.4-28.6-73.9-42.2h0a15.31,15.31,0,0,0-13,.3h0q-39.3,22.35-78.5,45.2c-10.6,6.2-21.2,12.3-31.8,18.4l.2.4M828.9,693.3l-223.7-382m0,0-.2-.4c-24.3,14-48.5,28-73.5,42.4-15.4,8.9-31.1,17.9-47.2,27.2m120.9-69.2-121,69.2m.1,1V111.7l-.8.4c-8.2,4.7-16.2,9.4-24,14-22.9,13.4-44.7,26.1-66.8,38.3h0c-4.1,2.3-7,4.8-8.7,7.9s-2.4,6.8-2.4,11.4q.6,93,.5,186.1c0,19.6,0,39.2.1,58.8v16.5h0L219,351.1l-70-40.4-.8-.4v.9c0,10.4,0,20.6.1,30.6.1,25.7.1,50.4-.3,75-.1,4.8.7,8.4,2.6,11.5s4.8,5.4,8.8,7.7q59.4,33.6,118.2,67.8l30.2,17.4.2-.4-.2.4c16.7,9.7,33.5,19.4,50.6,29.3l27,15.7-130,75.2L152.8,700.7l-.8.4.8.4c9.1,5.3,18,10.3,26.7,15.3,21.3,12.2,41.6,23.8,61.6,36.1,5.1,3.2,9.6,4.7,14.1,4.7s9-1.7,14.2-4.8c57.5-33.8,115.4-67.2,173.2-100.5,13.6-7.9,27.3-15.7,40.9-23.6a33.58,33.58,0,0,1,4.3-2l1.5-.6c1.2-.5,2.5-1,4-1.6v268l.8-.4c8.1-4.7,16.1-9.2,24-13.7,23.9-13.6,47-26.7,69.7-40.4,2.1-1.2,3.8-3.8,5.1-6.6a23,23,0,0,0,2-8.6q.6-106.2.3-212.3V564.7ZM373.1,702.2v-.9l-.8.4q-15.6,9-30.6,17.7c-25.3,14.5-49.6,28.4-73.5,42.9-4.8,2.9-8.9,4.3-13,4.4s-8.2-1.4-13-4.3l-.3.4.3-.4q-45.3-27.6-91.8-53.3c-4.4-2.4-7.1-5-8.8-8.2s-2.3-6.9-2.2-11.6c.5-35.9.8-71.8.2-107.6h0c-.1-5,.8-8.7,2.8-11.7s4.9-5.4,9-7.7h0c25.3-14.2,50.4-28.8,76.4-43.9,9.4-5.5,19-11,28.7-16.6l.8-.4-.8-.4-18.9-11c-17-9.9-33.3-19.4-49.6-28.8-3.9-2.3-7.9-4.5-11.9-6.7-9.2-5.1-18.4-10.3-27.1-16.2h0a22.25,22.25,0,0,1-6-6.6,16.75,16.75,0,0,1-2.8-8.1q-1-57.3,0-114.6h0a17.38,17.38,0,0,1,2.4-7.7,16.4,16.4,0,0,1,5.4-6q49.8-29.7,100.6-57.8a13.18,13.18,0,0,1,7.1-1.1,18,18,0,0,1,7.3,2c22.7,12.6,45.1,25.5,67.6,38.5,7.8,4.5,15.5,9,23.3,13.4,4.1,2.4,8.3,4.8,13.3,7.6l4.1,2.3.7.4v-.8c.1-2,.3-3.8.4-5.5.3-3.1.5-5.7.5-8.2V263.5c.1-28.8.1-57.6-.2-86.4,0-4.2.4-7.5,1.8-10.4s3.8-5.2,7.6-7.3h0c15.3-8.5,30.5-17.2,45.6-25.9,17.5-10.1,35.1-20.2,52.9-30a18.25,18.25,0,0,1,7.9-1.8,17.26,17.26,0,0,1,7.8,1.5q49.95,27.9,99.1,57.5a17.54,17.54,0,0,1,5.6,6.5,19.48,19.48,0,0,1,2.5,8.4c.5,30.7.5,61.5.4,93.3v31.6l.7-.4c2.3-1.2,4.4-2.3,6.4-3.3,3.5-1.9,6.7-3.5,9.7-5.2h0c8.2-4.7,16.4-9.5,24.6-14.2,22.8-13.2,45.6-26.5,68.7-39.2h0a17.4,17.4,0,0,1,7.7-1.8,15.94,15.94,0,0,1,7.7,1.6q50.7,28.2,100.4,58h0a15.45,15.45,0,0,1,5.2,6.1,16.85,16.85,0,0,1,2.3,7.9c.2,20.6.1,41.2,0,61.9-.1,17.1-.2,34.2,0,51.4,0,4.1-.7,7.1-2.3,9.6s-4,4.5-7.5,6.4c-22.9,12.8-45.6,26-68.3,39.2l-20,11.6c-3.7,2.1-7.3,4.3-11.5,6.8-2.2,1.3-4.6,2.7-7.2,4.3l-.7.4.7.4c9.7,5.6,19.1,11.2,28.5,16.8,22,13,43.3,25.7,65.3,36.9,9.1,4.7,15.4,9.6,19.3,16s5.2,14.3,4.5,24.7c-1.9,25.4-1.5,50.9-1,76.5.1,6.1.2,12.1.3,18.2.1,4.5-.5,8-2.1,10.9s-4.2,5.3-8.4,7.6l.2.4-.2-.4q-47.7,26.25-94.4,54.4c-3.9,2.4-7.3,3.5-10.7,3.5s-6.7-1.1-10.5-3.4c-23.4-13.9-46.9-27.5-70.4-41-7.5-4.3-15-8.7-22.5-13-2.5-1.5-5.1-2.8-8.3-4.5-1.3-.7-2.8-1.5-4.4-2.3l-.7-.4v.8c-.1,2.1-.3,4-.4,5.8-.2,3.2-.4,6.1-.5,8.9h0v20.2c-.1,29.6-.1,59.2.2,88.8h0a17.9,17.9,0,0,1-2.1,9.7c-1.5,2.6-3.9,4.6-7.4,6.6-13.9,7.8-27.8,15.8-41.6,23.7-18.9,10.8-37.7,21.7-56.8,32.1a17.3,17.3,0,0,1-8.4,1.6,19,19,0,0,1-8.5-2h0c-16.1-8.9-32-18.1-47.9-27.3l-1.9-1q-22.95-13.35-46-26.3c-4-2.2-6.7-4.5-8.5-7.4s-2.5-6.3-2.4-10.9h0c.4-28.9.3-57.8.2-87.9C373.1,726.1,373.1,714.3,373.1,702.2Z" transform="translate(-138.89 -100)"/><path class="cls-2" d="M828.4,693.4,594.7,558.7V575c0,82.6.1,165.1-.3,247.7,0,5-2.9,12.4-6.9,14.8-30.3,18.2-61.1,35.5-93.6,54.1v-268c-5,2.2-7.9,3.1-10.5,4.5-71.5,41.2-143,82.3-214.2,124.1-10.3,6-17.6,6.4-27.8.1-28.1-17.3-56.9-33.3-88.3-51.5,78.5-45.4,155.2-89.7,233.4-135-27.1-15.7-52.7-30.6-78.3-45.4-49.5-28.5-98.8-57.2-148.5-85.2-8-4.5-11.3-9.2-11.2-18.7.6-34.3.2-68.6.2-105.6,78.4,45.2,155,89.2,234,134.8V428.3c-.1-81.6-.1-163.3-.6-244.9-.1-9.2,2.6-14.3,10.8-18.8,29.7-16.4,58.9-33.8,90.8-52.3V382.1c42.5-24.5,82-47.3,121.4-70.1,36.7-21.2,73.3-42.7,110.2-63.6,3.3-1.8,9.3-2.1,12.5-.3,31.6,17.7,62.9,35.9,96.3,55.2-77.9,45-154.5,89.2-233,134.6,5.3,3.4,8.9,5.9,12.7,8.1,71.1,41,142,82.1,213.4,122.7,8.7,4.9,11.5,10.4,11.3,20.1C828.1,622.8,828.4,656.6,828.4,693.4Z" transform="translate(-138.89 -100)"/></svg>