<?xml version="1.0" encoding="utf-8"?>
<!-- Generator: Adobe Illustrator 26.0.2, SVG Export Plug-In . SVG Version: 6.00 Build 0)  -->
<svg version="1.1" id="Layer_1" xmlns="http://www.w3.org/2000/svg" xmlns:xlink="http://www.w3.org/1999/xlink" x="0px" y="0px"
	 viewBox="0 0 6331 1000" style="enable-background:new 0 0 6331 1000;" xml:space="preserve">
<style type="text/css">
	.st0{fill:#FFFFFF;}
	.st1{fill:#0C5FF3;stroke:#0C5FF3;}
	.st2{fill:#1ED1CF;}
</style>
<path class="st0" d="M1200,114.3v771.3h123.3V114.3H1200z"/>
<path class="st0" d="M1727.2,316c-71.6,0-125.5,35.3-153.1,87.1l-8.8-74.9H1464v557.6h116.7V589.3c0-101.4,47.4-158.7,114.5-158.7
	c60.6,0,94.7,40.8,94.7,116.8v338.3h117.8V524.2C1907.8,397.5,1842.8,316,1727.2,316z"/>
<path class="st0" d="M2204.1,316c-60.6,0-109,17.6-143.2,51.8c-34.1,34.2-50.7,74.9-50.7,123.4c0,89.3,54,136.6,174,162
	c84.8,17.6,109,37.5,109,80.4c0,39.7-29.7,65-83.7,65c-58.4,0-93.6-29.8-94.7-81.5H1997c3.3,111.3,79.3,180.7,210.3,180.7
	c118.9,0,203.7-63.9,203.7-175.2c0-92.6-49.6-141-181.7-167.5c-79.3-17.6-101.3-34.2-101.3-73.8c0-38.6,26.4-65,73.8-65
	c50.7,0,77.1,25.3,78.2,76h116.7c-1.1-52.9-19.8-95.9-56.2-127.8C2305.4,332.5,2260.2,316,2204.1,316z"/>
<path class="st0" d="M2826.5,328.1v305.2c0,95.9-46.3,151-112.3,151c-62.8,0-93.6-39.7-93.6-117.9V328.1h-116.7v361.4
	c0,127.8,60.6,208.3,178.4,208.3c71.6,0,122.2-28.7,150.9-87.1l7.7,74.9h102.4V328.1H2826.5z"/>
<path class="st0" d="M3362.9,322.6c-88.1,0-143.2,43-164.1,100.3l-9.9-94.8h-102.4v557.6h116.7V595.9c1.1-51.8,16.5-91.5,48.4-117.9
	c28.6-25.3,66.1-37.5,111.2-37.5V322.6z"/>
<path class="st0" d="M3666.6,316c-81.5,0-147.6,27.5-197.1,82.6c-49.6,54-74.9,124.5-74.9,209.4c0,87.1,25.3,157.6,74.9,210.5
	c50.7,52.9,116.7,79.3,197.1,79.3c128.8,0,215.9-67.2,251.1-182.9h-114.5c-20.9,52.9-65,79.3-133.2,79.3
	c-87,0-148.7-57.3-154.2-146.6h406.4v-45.2C3922.1,417.4,3819.7,316,3666.6,316z M3665.5,418.5c82.6,0,137.7,54,138.8,137.7h-287.4
	C3524.6,475.8,3581.8,418.5,3665.5,418.5z"/>
<path class="st0" d="M4029.7,114.3v771.3h281.9c120,0,214.8-35.3,286.3-105.8c71.6-70.5,107.9-164.2,107.9-279.9
	c0-115.7-36.3-208.3-107.9-278.8c-71.6-71.6-166.3-106.9-286.3-106.9H4029.7z M4311.6,230c168.5,0,267.6,99.2,267.6,270
	S4479,770,4311.6,770H4153V230H4311.6z"/>
<path class="st0" d="M4984.7,114.3l-305.1,771.3h135.5l72.7-188.4h324.9l73.8,188.4h135.5l-305.1-771.3H4984.7z M5064,310.5
	L5173,586h-244.5l106.8-275.5l14.3-41.9L5064,310.5z"/>
<path class="st0" d="M5788.5,100c-115.6,0-211.5,37.5-286.3,113.5c-73.8,74.9-111.2,169.7-111.2,285.4
	c0,115.7,37.4,211.6,111.2,287.6c74.9,76,170.7,113.5,286.3,113.5c115.6,0,210.3-37.5,284.1-113.5c73.8-76,111.2-171.9,111.2-287.6
	c0-115.7-37.4-210.5-111.2-285.4C5998.8,137.5,5904.1,100,5788.5,100z M5520.9,498.9c0-82.6,24.2-149.9,73.8-202.8
	c49.6-54,114.5-80.4,193.8-80.4c79.3,0,143.2,26.4,192.7,80.4c49.6,52.9,73.8,120.1,73.8,202.8s-24.2,151-73.8,205
	c-49.6,54-113.4,80.4-192.7,80.4c-79.3,0-144.3-26.4-193.8-80.4C5545.1,649.9,5520.9,581.5,5520.9,498.9z"/>
<path class="st1" d="M836.7,693.3v-0.9c0-10.2,0-20.2-0.1-30c-0.1-25.6-0.1-50,0.3-74.5c0.1-4.9-0.6-8.8-2.4-12.1s-4.8-6-9.2-8.5
	c-57.5-32.7-115-65.7-172.3-99L612,444.7l0,0c-2.5-1.4-4.9-3-7.8-4.9c-1.3-0.9-2.7-1.8-4.2-2.8l16.5-9.5l215.8-124.7l0.8-0.4
	l-0.8-0.4c-7.6-4.4-15-8.7-22.4-13c-25.2-14.5-49.4-28.6-73.9-42.2l0,0c-2-1-4.3-1.4-6.5-1.3c-2.3,0-4.5,0.5-6.5,1.6l0,0
	c-26.2,14.9-52.3,30-78.5,45.2c-10.6,6.2-21.2,12.3-31.8,18.4l0.2,0.4 M836.7,693.3L613,311.3 M613,311.3l-0.2-0.4
	c-24.3,14-48.5,28-73.5,42.4c-15.4,8.9-31.1,17.9-47.2,27.2 M613,311.3l-121,69.2 M492.1,381.5V111.7l-0.8,0.4
	c-8.2,4.7-16.2,9.4-24,14c-22.9,13.4-44.7,26.1-66.8,38.3l0,0c-4.1,2.3-7,4.8-8.7,7.9s-2.4,6.8-2.4,11.4c0.4,62,0.6,124,0.5,186.1
	c0,19.6,0,39.2,0.1,58.8v16.5l0,0l-163.2-94l-70-40.4l-0.8-0.4v0.9c0,10.4,0,20.6,0.1,30.6c0.1,25.7,0.1,50.4-0.3,75
	c-0.1,4.8,0.7,8.4,2.6,11.5c1.9,3,4.8,5.4,8.8,7.7c39.6,22.4,78.9,45.1,118.2,67.8l30.2,17.4l0.2-0.4l-0.2,0.4
	c16.7,9.7,33.5,19.4,50.6,29.3l27,15.7l-130,75.2l-102.6,59.3l-0.8,0.4l0.8,0.4c9.1,5.3,18,10.3,26.7,15.3
	c21.3,12.2,41.6,23.8,61.6,36.1c5.1,3.2,9.6,4.7,14.1,4.7s9-1.7,14.2-4.8c57.5-33.8,115.4-67.2,173.2-100.5
	c13.6-7.9,27.3-15.7,40.9-23.6c1.4-0.8,2.8-1.4,4.3-2l1.5-0.6c1.2-0.5,2.5-1,4-1.6v268l0.8-0.4c8.1-4.7,16.1-9.2,24-13.7
	c23.9-13.6,47-26.7,69.7-40.4c2.1-1.2,3.8-3.8,5.1-6.6c1.2-2.7,1.9-5.6,2-8.6c0.4-70.8,0.4-141.5,0.3-212.3c0-11.8,0-23.6,0-35.4
	v-10.4L492.1,381.5z M380.9,702.2v-0.9l-0.8,0.4c-10.4,6-20.6,11.9-30.6,17.7c-25.3,14.5-49.6,28.4-73.5,42.9
	c-4.8,2.9-8.9,4.3-13,4.4c-4.1,0-8.2-1.4-13-4.3l-0.3,0.4l0.3-0.4c-30.2-18.4-60.8-36.2-91.8-53.3c-4.4-2.4-7.1-5-8.8-8.2
	s-2.3-6.9-2.2-11.6c0.5-35.9,0.8-71.8,0.2-107.6l0,0c-0.1-5,0.8-8.7,2.8-11.7s4.9-5.4,9-7.7l0,0c25.3-14.2,50.4-28.8,76.4-43.9
	c9.4-5.5,19-11,28.7-16.6l0.8-0.4l-0.8-0.4l-18.9-11c-17-9.9-33.3-19.4-49.6-28.8c-3.9-2.3-7.9-4.5-11.9-6.7
	c-9.2-5.1-18.4-10.3-27.1-16.2l0,0c-2.4-1.8-4.5-4-6-6.6c-1.6-2.4-2.6-5.2-2.8-8.1c-0.7-38.2-0.7-76.4,0-114.6l0,0
	c0.2-2.7,1-5.4,2.4-7.7c1.3-2.4,3.1-4.5,5.4-6c33.2-19.8,66.7-39.1,100.6-57.8c2.2-1,4.6-1.4,7-1.1c2.6,0.2,5.1,0.8,7.3,2
	c22.7,12.6,45.1,25.5,67.6,38.5c7.8,4.5,15.5,9,23.3,13.4c4.1,2.4,8.3,4.8,13.3,7.6l4.1,2.3l0.7,0.4l0-0.8c0.1-2,0.3-3.8,0.4-5.5
	c0.3-3.1,0.5-5.7,0.5-8.2c0-7.5,0-15,0-22.6c0.1-28.8,0.1-57.6-0.2-86.4c0-4.2,0.4-7.5,1.8-10.4s3.8-5.2,7.6-7.3l0,0
	c15.3-8.5,30.5-17.2,45.6-25.9c17.5-10.1,35.1-20.2,52.9-30c2.5-1.2,5.2-1.8,7.9-1.8c2.7-0.1,5.4,0.4,7.8,1.5
	c33.3,18.6,66.4,37.7,99.1,57.5c2.4,1.7,4.3,3.9,5.6,6.5c1.5,2.6,2.3,5.5,2.5,8.4c0.5,30.7,0.5,61.5,0.4,93.3c0,10.1,0,20.4,0,30.8
	v0.8l0.7-0.4c2.3-1.2,4.4-2.3,6.4-3.3c3.5-1.9,6.7-3.5,9.7-5.2l0,0c8.2-4.7,16.4-9.5,24.6-14.2c22.8-13.2,45.6-26.5,68.7-39.2l0,0
	c2.4-1.2,5.1-1.8,7.7-1.8c2.6-0.1,5.3,0.4,7.7,1.6c33.8,18.8,67.3,38.1,100.4,58l0,0c2.2,1.5,4,3.6,5.2,6.1c1.4,2.4,2.2,5.1,2.3,7.9
	c0.2,20.6,0.1,41.2,0,61.9c-0.1,17.1-0.2,34.2,0,51.4c0,4.1-0.7,7.1-2.3,9.6s-4,4.5-7.5,6.4c-22.9,12.8-45.6,26-68.3,39.2l-20,11.6
	c-3.7,2.1-7.3,4.3-11.5,6.8c-2.2,1.3-4.6,2.7-7.2,4.3l-0.7,0.4l0.7,0.4c9.7,5.6,19.1,11.2,28.5,16.8c22,13,43.3,25.7,65.3,36.9
	c9.1,4.7,15.4,9.6,19.3,16s5.2,14.3,4.5,24.7c-1.9,25.4-1.5,50.9-1,76.5c0.1,6.1,0.2,12.1,0.3,18.2c0.1,4.5-0.5,8-2.1,10.9
	s-4.2,5.3-8.4,7.6l0.2,0.4l-0.2-0.4c-31.8,17.5-63.2,35.7-94.4,54.4c-3.9,2.4-7.3,3.5-10.7,3.5s-6.7-1.1-10.5-3.4
	c-23.4-13.9-46.9-27.5-70.4-41c-7.5-4.3-15-8.7-22.5-13c-2.5-1.5-5.1-2.8-8.3-4.5c-1.3-0.7-2.8-1.5-4.4-2.3l-0.7-0.4l0,0.8
	c-0.1,2.1-0.3,4-0.4,5.8c-0.2,3.2-0.4,6.1-0.5,8.9l0,0c0,6.7,0,13.5,0,20.2c-0.1,29.6-0.1,59.2,0.2,88.8l0,0c0.1,4-0.6,7.1-2.1,9.7
	s-3.9,4.6-7.4,6.6c-13.9,7.8-27.8,15.8-41.6,23.7c-18.9,10.8-37.7,21.7-56.8,32.1c-2.6,1.2-5.5,1.8-8.4,1.6c-3,0-5.9-0.7-8.5-2l0,0
	c-16.1-8.9-32-18.1-47.9-27.3l-1.9-1c-15.3-8.9-30.6-17.7-46-26.3c-4-2.2-6.7-4.5-8.5-7.4s-2.5-6.3-2.4-10.9l0,0
	c0.4-28.9,0.3-57.8,0.2-87.9C380.9,726.1,380.9,714.3,380.9,702.2z"/>
<path class="st2" d="M836.2,693.4L602.5,558.7V575c0,82.6,0.1,165.1-0.3,247.7c0,5-2.9,12.4-6.9,14.8
	c-30.3,18.2-61.1,35.5-93.6,54.1V623.6c-5,2.2-7.9,3.1-10.5,4.5c-71.5,41.2-143,82.3-214.2,124.1c-10.3,6-17.6,6.4-27.8,0.1
	c-28.1-17.3-56.9-33.3-88.3-51.5c78.5-45.4,155.2-89.7,233.4-135c-27.1-15.7-52.7-30.6-78.3-45.4c-49.5-28.5-98.8-57.2-148.5-85.2
	c-8-4.5-11.3-9.2-11.2-18.7c0.6-34.3,0.2-68.6,0.2-105.6c78.4,45.2,155,89.2,234,134.8v-17.4c-0.1-81.6-0.1-163.3-0.6-244.9
	c-0.1-9.2,2.6-14.3,10.8-18.8c29.7-16.4,58.9-33.8,90.8-52.3v269.8c42.5-24.5,82-47.3,121.4-70.1c36.7-21.2,73.3-42.7,110.2-63.6
	c3.3-1.8,9.3-2.1,12.5-0.3c31.6,17.7,62.9,35.9,96.3,55.2c-77.9,45-154.5,89.2-233,134.6c5.3,3.4,8.9,5.9,12.7,8.1
	c71.1,41,142,82.1,213.4,122.7c8.7,4.9,11.5,10.4,11.3,20.1C835.9,622.8,836.2,656.6,836.2,693.4z"/>
</svg>
