<svg id="Layer_1" data-name="Layer 1" xmlns="http://www.w3.org/2000/svg" viewBox="0 0 700 800"><defs><style>.cls-1{fill:#0c5ff3;stroke:#0c5ff3;}.cls-2{fill:#1ed1cf;}</style></defs><path class="cls-1" d="M774.22,661v-.86q0-15.3-.06-30c-.06-25.57-.13-50,.28-74.45.09-4.87-.58-8.76-2.4-12.06s-4.78-6-9.17-8.47q-86.32-49.12-172.27-99l-41.1-23.71h0c-2.49-1.44-4.89-3-7.76-4.86-1.3-.85-2.69-1.76-4.24-2.75L554,395.36l215.84-124.7.75-.43-.75-.44q-11.36-6.54-22.42-13c-25.16-14.54-49.41-28.56-73.87-42.23h0a13.14,13.14,0,0,0-6.5-1.28,14.6,14.6,0,0,0-6.53,1.57h0c-26.25,14.89-52.35,30-78.45,45.19q-15.88,9.23-31.8,18.44l.25.43M774.22,661,550.5,279m0,0-.25-.43c-24.26,14-48.53,28-73.5,42.43-15.41,8.89-31.09,17.93-47.2,27.24M550.5,279,429.55,348.2m0,1V79.41l-.76.44q-12.24,7.09-24,14c-22.9,13.36-44.73,26.09-66.84,38.31h0c-4.15,2.3-6.95,4.75-8.69,7.85s-2.4,6.76-2.38,11.43q.58,93,.55,186.11,0,29.37.08,58.76v16.55h0l-163.17-94-70-40.37-.75-.43v.87q0,15.57.06,30.58c.07,25.68.14,50.36-.29,75-.08,4.77.72,8.42,2.6,11.45s4.8,5.39,8.83,7.66c39.55,22.37,78.89,45.1,118.24,67.83l30.16,17.42.25-.43-.24.43c16.74,9.65,33.46,19.35,50.59,29.28l27,15.65-130,75.15L98.14,668.23l-.75.44.75.43c9.1,5.27,18,10.35,26.7,15.34,21.33,12.21,41.65,23.84,61.55,36.14,5.15,3.19,9.62,4.73,14.13,4.67s9-1.71,14.16-4.75C272.23,686.67,330.07,653.32,387.91,620q20.47-11.81,40.93-23.61a34.78,34.78,0,0,1,4.28-2l1.49-.6c1.17-.47,2.49-1,4-1.63v268l.75-.42q12.13-7,24-13.69c23.87-13.59,46.95-26.73,69.67-40.42,2.09-1.25,3.85-3.79,5.09-6.59a22.53,22.53,0,0,0,2-8.59c.37-70.78.36-141.54.35-212.32q0-17.7,0-35.39V532.3ZM318.36,669.91V669l-.75.44Q302,678.5,287,687.09c-25.31,14.52-49.57,28.43-73.5,42.87-4.81,2.9-8.92,4.35-13,4.37s-8.19-1.39-13-4.34l-.26.43.26-.43q-45.25-27.66-91.77-53.26c-4.38-2.42-7.14-5-8.8-8.17S84.63,661.68,84.7,657c.54-35.86.8-71.75.23-107.59h0c-.08-5,.85-8.68,2.77-11.69s4.9-5.4,9-7.69h0c25.27-14.23,50.38-28.77,76.45-43.86q14.13-8.19,28.69-16.6l.75-.43-.75-.43-18.9-11c-17-9.93-33.29-19.39-49.55-28.82-3.94-2.29-7.91-4.5-11.88-6.72-9.22-5.14-18.42-10.27-27.07-16.21h0a22.14,22.14,0,0,1-6-6.6,17.18,17.18,0,0,1-2.79-8.09q-1.11-57.31,0-114.62h0a17.26,17.26,0,0,1,2.44-7.73,16.75,16.75,0,0,1,5.37-6q49.79-29.73,100.56-57.8a13.1,13.1,0,0,1,7.05-1.09,18.76,18.76,0,0,1,7.34,2c22.66,12.58,45.11,25.54,67.58,38.5q11.64,6.72,23.31,13.43c4.14,2.39,8.31,4.75,13.32,7.58l4.07,2.3.69.39.05-.79c.14-2,.29-3.83.43-5.49.27-3.1.48-5.69.48-8.25q0-11.28.05-22.56c.08-28.82.15-57.64-.19-86.44,0-4.18.43-7.52,1.83-10.35s3.77-5.17,7.62-7.3h0c15.29-8.5,30.45-17.19,45.61-25.87C390.8,91.05,408.36,81,426.11,71.23A18.18,18.18,0,0,1,434,69.39a16.23,16.23,0,0,1,7.81,1.53q50,27.83,99.08,57.47a17.06,17.06,0,0,1,5.61,6.51,19.72,19.72,0,0,1,2.49,8.44c.52,30.72.47,61.47.41,93.27q0,15.19,0,30.75v.83l.74-.39c2.29-1.22,4.39-2.32,6.36-3.34,3.54-1.85,6.65-3.47,9.68-5.2h0q12.32-7.09,24.59-14.23c22.81-13.23,45.62-26.46,68.66-39.24h0a17.16,17.16,0,0,1,7.73-1.77,16,16,0,0,1,7.67,1.55q50.67,28.16,100.42,58h0a16,16,0,0,1,5.24,6.07,18.26,18.26,0,0,1,2.32,7.86c.24,20.63.14,41.25,0,61.88-.08,17.11-.16,34.23,0,51.37,0,4.1-.74,7.13-2.32,9.61s-4,4.46-7.5,6.4c-22.9,12.83-45.62,26-68.33,39.18l-20,11.57c-3.66,2.11-7.28,4.28-11.5,6.81-2.2,1.32-4.56,2.74-7.18,4.29l-.73.44.74.42c9.69,5.61,19.14,11.22,28.47,16.75,22,13.05,43.28,25.68,65.29,36.88,9.12,4.65,15.43,9.64,19.27,16s5.25,14.27,4.46,24.74c-1.91,25.38-1.48,50.94-1,76.45q.15,9.09.27,18.18c.06,4.48-.51,8-2.08,10.86s-4.19,5.3-8.36,7.59l.24.44-.24-.44c-31.81,17.48-63.25,35.72-94.4,54.36-3.94,2.36-7.33,3.48-10.66,3.48s-6.68-1.14-10.53-3.42c-23.36-13.9-46.89-27.45-70.43-41q-11.28-6.49-22.55-13c-2.52-1.46-5.1-2.84-8.29-4.55-1.35-.71-2.8-1.49-4.4-2.35l-.69-.38-.05.79c-.12,2.1-.26,4-.39,5.82-.23,3.24-.44,6.09-.46,8.93h0q0,10.1,0,20.19c-.07,29.61-.14,59.22.21,88.81h0c.06,4-.58,7.11-2.06,9.65s-3.86,4.6-7.36,6.56c-13.93,7.81-27.78,15.76-41.61,23.72-18.86,10.84-37.72,21.68-56.8,32.13a17.38,17.38,0,0,1-8.44,1.64,19.36,19.36,0,0,1-8.52-2h0c-16.09-8.91-32-18.12-47.91-27.34L375.08,838c-15.3-8.87-30.6-17.74-46.05-26.35-4-2.24-6.74-4.54-8.46-7.39s-2.48-6.31-2.41-10.92h0c.37-28.88.31-57.77.25-87.86C318.39,693.81,318.36,682,318.36,669.91Z" transform="translate(-84.2 -68.89)"/><path class="cls-2" d="M773.72,661.15,540,526.4v16.34c0,82.58.08,165.14-.34,247.72,0,5-2.93,12.39-6.87,14.75-30.27,18.21-61.11,35.46-93.65,54.1V591.37c-5,2.15-7.94,3.06-10.53,4.54-71.46,41.24-143,82.32-214.16,124.14-10.27,6-17.56,6.41-27.78.08-28.06-17.3-56.91-33.33-88.26-51.49,78.47-45.36,155.16-89.7,233.38-134.95-27.1-15.68-52.69-30.58-78.33-45.36C204,459.82,154.68,431.17,105,403.09c-8-4.52-11.35-9.25-11.18-18.67.57-34.27.2-68.57.2-105.56C172.47,324.05,249,368.11,328,413.7V396.28c-.14-81.62-.11-163.26-.62-244.88-.06-9.25,2.58-14.3,10.81-18.84,29.7-16.42,58.87-33.75,90.84-52.25V350.09c42.5-24.51,82-47.26,121.45-70.1,36.74-21.24,73.34-42.72,110.25-63.63,3.26-1.84,9.33-2.07,12.54-.28,31.63,17.67,62.92,35.94,96.29,55.18-77.91,45-154.48,89.24-233,134.63,5.31,3.38,8.94,5.88,12.71,8.06,71.07,41,142,82.1,213.38,122.69,8.65,4.94,11.46,10.41,11.32,20.09C773.38,590.52,773.72,624.36,773.72,661.15Z" transform="translate(-84.2 -68.89)"/></svg>