<svg width="5278" height="1000" viewBox="0 0 5278 1000" fill="none" xmlns="http://www.w3.org/2000/svg">
<path d="M147 114.325V885.675H270.343V114.325H147Z" fill="white"/>
<path d="M674.201 315.978C602.618 315.978 548.656 351.24 521.124 403.03L512.314 328.099H410.996V885.675H527.732V589.256C527.732 487.879 575.087 430.579 642.264 430.579C702.835 430.579 736.974 471.35 736.974 547.383V885.675H854.811V524.242C854.811 397.521 789.835 315.978 674.201 315.978Z" fill="white"/>
<path d="M1151.07 315.978C1090.5 315.978 1042.04 333.609 1007.91 367.769C973.766 401.928 957.246 442.7 957.246 491.185C957.246 580.441 1011.21 627.824 1131.25 653.168C1216.05 670.799 1240.27 690.634 1240.27 733.609C1240.27 773.278 1210.54 798.623 1156.58 798.623C1098.21 798.623 1062.97 768.871 1061.87 717.08H944.031C947.335 828.375 1023.32 897.796 1154.37 897.796C1273.31 897.796 1358.11 833.884 1358.11 722.59C1358.11 630.028 1308.55 581.543 1176.4 555.096C1097.11 537.466 1075.08 520.937 1075.08 481.267C1075.08 442.7 1101.51 416.253 1148.87 416.253C1199.53 416.253 1225.96 441.598 1227.06 492.286H1343.79C1342.69 439.394 1323.97 396.419 1287.63 364.463C1252.39 332.507 1207.24 315.978 1151.07 315.978Z" fill="white"/>
<path d="M1773.51 328.099V633.333C1773.51 729.201 1727.25 784.298 1661.18 784.298C1598.4 784.298 1567.57 744.628 1567.57 666.391V328.099H1450.83V689.532C1450.83 817.355 1511.4 897.796 1629.24 897.796C1700.82 897.796 1751.48 869.146 1780.11 810.744L1787.82 885.675H1890.24V328.099H1773.51Z" fill="white"/>
<path d="M2309.92 322.59C2221.82 322.59 2166.76 365.565 2145.83 422.865L2135.92 328.099H2033.5V885.675H2150.24V595.868C2151.34 544.077 2166.76 504.408 2198.69 477.961C2227.33 452.617 2264.77 440.496 2309.92 440.496V322.59Z" fill="white"/>
<path d="M2613.63 315.978C2532.13 315.978 2466.05 343.526 2416.5 398.623C2366.94 452.617 2341.61 523.141 2341.61 607.989C2341.61 695.041 2366.94 765.565 2416.5 818.457C2467.16 871.35 2533.23 897.796 2613.63 897.796C2742.47 897.796 2829.48 830.578 2864.72 714.876H2750.18C2729.26 767.769 2685.21 794.215 2616.93 794.215C2529.93 794.215 2468.26 736.915 2462.75 647.658H2869.12V602.479C2869.12 417.355 2766.7 315.978 2613.63 315.978ZM2612.52 418.457C2695.12 418.457 2750.18 472.452 2751.29 556.198H2463.85C2471.56 475.758 2528.83 418.457 2612.52 418.457Z" fill="white"/>
<path d="M2976.68 114.325V885.675H3258.6C3378.64 885.675 3473.35 850.413 3544.94 779.89C3616.52 709.366 3652.86 615.703 3652.86 500C3652.86 384.298 3616.52 291.736 3544.94 221.212C3473.35 149.587 3378.64 114.325 3258.6 114.325H2976.68ZM3258.6 230.028C3427.1 230.028 3526.21 329.201 3526.21 500C3526.21 670.799 3426 769.972 3258.6 769.972H3100.02V230.028H3258.6Z" fill="white"/>
<path d="M3931.72 114.325L3626.67 885.675H3762.13L3834.81 697.245H4159.69L4233.47 885.675H4368.93L4063.88 114.325H3931.72ZM4011.02 310.468L4120.04 585.95H3875.56L3982.38 310.468L3996.7 268.595L4011.02 310.468Z" fill="white"/>
<path d="M4735.47 100C4619.83 100 4524.02 137.466 4449.13 213.499C4375.35 288.43 4337.91 383.196 4337.91 498.898C4337.91 614.601 4375.35 710.468 4449.13 786.501C4524.02 862.534 4619.83 900 4735.47 900C4851.1 900 4945.81 862.534 5019.59 786.501C5093.38 710.468 5130.82 614.601 5130.82 498.898C5130.82 383.196 5093.38 288.43 5019.59 213.499C4945.81 137.466 4851.1 100 4735.47 100ZM4467.86 498.898C4467.86 416.253 4492.08 349.036 4541.64 296.143C4591.2 242.149 4656.17 215.702 4735.47 215.702C4814.76 215.702 4878.63 242.149 4928.19 296.143C4977.75 349.036 5001.97 416.253 5001.97 498.898C5001.97 581.543 4977.75 649.862 4928.19 703.857C4878.63 757.851 4814.76 784.298 4735.47 784.298C4656.17 784.298 4591.2 757.851 4541.64 703.857C4492.08 649.862 4467.86 581.543 4467.86 498.898Z" fill="white"/>
</svg>
